# 3ds Max Wavefront OBJ Exporter v0.97b - (c)2007 guruware
# File Created: 11.03.2017 02:08:23

mtllib bodyHighlight.mtl

#
# object Body_001
#

v  -0.0264 -0.0799 -1.3468
v  -0.0451 -0.0797 -1.3474
v  -0.0311 -0.0806 -1.3542
v  0.0000 -0.0808 -1.3531
v  0.0000 -0.0802 -1.3463
v  0.0264 -0.0799 -1.3468
v  -0.0436 -0.0782 -1.2764
v  -0.0531 -0.0804 -1.3557
v  -0.0417 -0.0818 -1.2373
v  -0.0512 -0.0785 -1.2764
v  -0.0472 -0.1080 -1.0620
v  -0.0487 -0.0816 -1.2373
v  -0.0403 -0.1086 -1.0621
v  -0.0470 -0.1116 -1.0375
v  -0.0401 -0.1124 -1.0376
v  -0.0468 -0.1149 -1.0159
v  -0.0399 -0.1156 -1.0161
v  -0.0466 -0.1188 -0.9907
v  -0.0397 -0.1199 -0.9895
v  0.0311 -0.0806 -1.3542
v  0.0451 -0.0797 -1.3474
v  0.0531 -0.0804 -1.3557
v  0.0436 -0.0782 -1.2764
v  0.0512 -0.0785 -1.2764
v  0.0417 -0.0818 -1.2373
v  0.0487 -0.0816 -1.2373
v  0.0472 -0.1080 -1.0620
v  0.0470 -0.1116 -1.0375
v  0.0403 -0.1086 -1.0621
v  0.0468 -0.1149 -1.0159
v  0.0401 -0.1124 -1.0376
v  0.0466 -0.1188 -0.9907
v  0.0399 -0.1156 -1.0161
v  0.0397 -0.1199 -0.9895
v  -0.0392 0.1481 -1.2870
v  -0.0408 0.1459 -1.2596
v  -0.0321 0.1477 -1.2823
v  -0.0311 0.1486 -1.3210
v  -0.0372 0.1484 -1.3276
v  -0.0247 0.1476 -1.3366
v  -0.0327 0.1420 -1.2288
v  -0.0328 0.1459 -1.2556
v  -0.0409 0.1422 -1.2321
v  -0.0320 0.1367 -1.1399
v  -0.0413 0.1372 -1.2057
v  -0.0412 0.1213 -1.0085
v  -0.0296 0.1478 -1.3389
v  -0.0450 0.1480 -1.3417
v  -0.0165 0.1478 -1.3368
v  -0.0165 0.1477 -1.3421
v  -0.0163 0.1489 -1.3119
v  0.0000 0.1489 -1.3097
v  0.0165 0.1478 -1.3368
v  0.0000 0.1478 -1.3368
v  -0.0465 0.1473 -1.3645
v  -0.0160 0.1471 -1.3629
v  -0.0197 0.1461 -1.3992
v  -0.0376 0.1466 -1.3860
v  0.0000 0.1461 -1.3909
v  0.0000 0.1459 -1.4033
v  0.0000 0.1473 -1.3611
v  -0.0098 0.1467 -1.3624
v  0.0098 0.1467 -1.3624
v  0.0000 0.1461 -1.3793
v  0.0000 0.1477 -1.3421
v  0.0165 0.1477 -1.3421
v  0.0160 0.1471 -1.3629
v  0.0197 0.1461 -1.3992
v  0.0465 0.1473 -1.3645
v  0.0376 0.1466 -1.3860
v  0.0296 0.1478 -1.3389
v  0.0450 0.1480 -1.3417
v  0.0247 0.1476 -1.3366
v  0.0372 0.1484 -1.3276
v  0.0311 0.1486 -1.3210
v  0.0392 0.1481 -1.2870
v  0.0321 0.1477 -1.2823
v  0.0408 0.1459 -1.2596
v  0.0328 0.1459 -1.2556
v  0.0327 0.1420 -1.2288
v  0.0409 0.1422 -1.2321
v  0.0320 0.1367 -1.1399
v  0.0413 0.1372 -1.2057
v  0.0163 0.1489 -1.3119
v  0.0319 0.1229 -0.9984
v  0.0412 0.1213 -1.0085
v  0.0318 0.1210 -0.9791
v  0.0411 0.1192 -0.9817
v  -0.0411 0.1192 -0.9817
v  -0.0318 0.1210 -0.9791
v  -0.0319 0.1229 -0.9984
# 91 vertices

vn -0.0134 -0.9952 0.0971
vn 0.0000 -0.9963 0.0858
vn 0.0494 -0.9981 0.0380
vn 0.0315 -0.9994 -0.0148
vn -0.0198 -0.9905 -0.1359
vn -0.0943 -0.9843 -0.1495
vn -0.1048 -0.9834 -0.1482
vn -0.1140 -0.9820 -0.1503
vn -0.1340 -0.9786 -0.1560
vn 0.0134 -0.9952 0.0971
vn -0.0494 -0.9981 0.0380
vn -0.0315 -0.9994 -0.0148
vn 0.0198 -0.9905 -0.1359
vn 0.0943 -0.9843 -0.1495
vn 0.1048 -0.9834 -0.1482
vn 0.1140 -0.9820 -0.1503
vn 0.1340 -0.9786 -0.1560
vn 0.0182 0.9987 0.0472
vn -0.0160 0.9998 -0.0153
vn -0.0510 0.9930 0.1070
vn -0.0029 0.9971 0.0766
vn -0.5135 0.8545 0.0791
vn 0.0308 0.9989 -0.0347
vn -0.0307 0.9973 -0.0663
vn 0.0069 0.9990 -0.0439
vn 0.0000 0.9991 -0.0413
vn 0.0116 0.9995 -0.0289
vn 0.0074 0.9996 -0.0286
vn 0.0086 0.9996 -0.0253
vn -0.0545 0.9962 -0.0672
vn 0.0000 0.9979 -0.0648
vn 0.0000 0.9998 -0.0222
vn -0.0086 0.9996 -0.0253
vn -0.0074 0.9996 -0.0286
vn -0.0116 0.9995 -0.0289
vn -0.0308 0.9989 -0.0347
vn -0.0003 0.9976 -0.0689
vn 0.0018 0.9999 0.0158
vn 0.0180 0.9971 0.0733
vn 0.0475 0.9890 0.1399
vn 0.2961 0.9514 0.0848
vn -0.0069 0.9990 -0.0439
vn 0.0539 0.9969 -0.0576
vn 0.0499 0.9966 -0.0657
vn 0.3826 0.9203 0.0811
vn 0.2318 0.9690 0.0853
vn -0.2318 0.9690 0.0853
vn -0.2608 0.9608 0.0944
# 48 vertex normals

g Body_001
usemtl Base_001S_Se
s off
f 1//1 2//1 3//1 4//1 
f 5//2 1//2 4//2 6//2 
f 2//3 7//3 8//3 3//3 
f 7//4 9//4 10//4 8//4 
f 9//5 11//5 12//5 10//5 
f 13//6 14//6 11//6 9//6 
f 15//7 16//7 14//7 13//7 
f 17//8 18//8 16//8 15//8 
f 19//9 18//9 17//9 
f 20//10 21//10 6//10 4//10 
f 22//11 23//11 21//11 20//11 
f 24//12 25//12 23//12 22//12 
f 26//13 27//13 25//13 24//13 
f 27//14 28//14 29//14 25//14 
f 28//15 30//15 31//15 29//15 
f 30//16 32//16 33//16 31//16 
f 32//17 34//17 33//17 
f 35//18 36//18 37//18 38//18 
f 39//19 35//19 38//19 40//19 
f 36//20 41//20 42//20 37//20 
f 43//21 44//21 41//21 36//21 
f 45//22 46//22 44//22 43//22 
f 39//23 40//23 47//23 48//23 
f 49//24 50//24 40//24 38//24 
f 51//25 52//25 49//25 38//25 
f 52//26 53//26 54//26 49//26 
f 55//27 48//27 47//27 56//27 
f 55//28 56//28 57//28 58//28 
f 57//29 56//29 59//29 60//29 
f 50//30 61//30 62//30 40//30 
f 62//31 61//31 63//31 64//31 
f 65//32 66//32 61//32 50//32 
f 59//33 67//33 68//33 60//33 
f 68//34 67//34 69//34 70//34 
f 69//35 67//35 71//35 72//35 
f 71//36 73//36 74//36 72//36 
f 73//37 53//37 75//37 74//37 
f 76//38 74//38 75//38 77//38 
f 78//39 76//39 77//39 79//39 
f 79//40 80//40 81//40 78//40 
f 80//41 82//41 83//41 81//41 
f 53//42 52//42 84//42 75//42 
f 66//43 53//43 73//43 63//43 
f 63//44 61//44 66//44 
f 83//45 82//45 85//45 86//45 
f 86//46 85//46 87//46 88//46 
f 46//47 89//47 90//47 91//47 
f 91//48 44//48 46//48 
# 44 polygons - 4 triangles

