{
  "accessors": {
    "accessor_index_0": {
      "bufferView": "bufferView_1",
      "byteOffset": 0,
      "byteStride": 0,
      "componentType": 5123,
      "count": 5820,
      "type": "SCALAR",
      "min": [
        0
      ],
      "max": [
        1664
      ]
    },
    "accessor_position": {
      "bufferView": "bufferView_0",
      "byteOffset": 0,
      "byteStride": 0,
      "componentType": 5126,
      "count": 1665,
      "min": [
        -0.08727400004863739,
        1.5363579988479614,
        -0.0927480012178421
      ],
      "max": [
        0.08727400004863739,
        1.776100993156433,
        0.12870800495147705
      ],
      "type": "VEC3"
    },
    "accessor_normal": {
      "bufferView": "bufferView_0",
      "byteOffset": 19980,
      "byteStride": 0,
      "componentType": 5126,
      "count": 1665,
      "type": "VEC3",
      "min": [
        -0.9986574649810791,
        -0.9999998211860657,
        -0.9996182918548584
      ],
      "max": [
        0.9987061619758606,
        0.9982489943504333,
        0.9999971389770508
      ]
    },
    "accessor_uv": {
      "bufferView": "bufferView_0",
      "byteOffset": 39960,
      "byteStride": 0,
      "componentType": 5126,
      "count": 1665,
      "type": "VEC2",
      "min": [
        0.3700000047683716,
        0.017899999395012856
      ],
      "max": [
        0.9810000061988831,
        0.48510000109672546
      ]
    }
  },
  "asset": {
    "generator": "OBJ2GLTF",
    "premultipliedAlpha": true,
    "profile": {
      "api": "WebGL",
      "version": "1.0"
    },
    "version": "1.0"
  },
  "buffers": {
    "buffer_0": {
      "type": "arraybuffer",
      "byteLength": 64920,
      "uri": "head.bin"
    }
  },
  "bufferViews": {
    "bufferView_0": {
      "buffer": "buffer_0",
      "byteLength": 53280,
      "byteOffset": 0,
      "target": 34962
    },
    "bufferView_1": {
      "buffer": "buffer_0",
      "byteLength": 11640,
      "byteOffset": 53280,
      "target": 34963
    }
  },
  "images": {
    "small": {
      "uri": "small.jpg"
    }
  },
  "materials": {
    "material_Head": {
      "name": "Head",
      "extensions": {},
      "values": {
        "ambient": [
          0,
          0,
          0,
          1
        ],
        "diffuse": "texture_small",
        "emission": [
          0,
          0,
          0,
          1
        ],
        "specular": [
          0.012549,
          0.012549,
          0.012549,
          1
        ],
        "shininess": 96.078431,
        "transparency": 1
      }
    }
  },
  "meshes": {
    "mesh_s-series-f01": {
      "name": "s-series-f01",
      "primitives": [
        {
          "attributes": {
            "POSITION": "accessor_position",
            "NORMAL": "accessor_normal",
            "TEXCOORD_0": "accessor_uv"
          },
          "indices": "accessor_index_0",
          "material": "material_Head",
          "mode": 4
        }
      ]
    }
  },
  "nodes": {
    "rootNode": {
      "children": [],
      "meshes": [
        "mesh_s-series-f01"
      ],
      "matrix": [
        1,
        0,
        0,
        0,
        0,
        1,
        0,
        0,
        0,
        0,
        1,
        0,
        0,
        0,
        0,
        1
      ]
    }
  },
  "samplers": {
    "sampler_0": {
      "magFilter": 9729,
      "minFilter": 9986,
      "wrapS": 10497,
      "wrapT": 10497
    }
  },
  "scene": "scene_s-series-f01",
  "scenes": {
    "scene_s-series-f01": {
      "nodes": [
        "rootNode"
      ]
    }
  },
  "textures": {
    "texture_small": {
      "format": 6407,
      "internalFormat": 6407,
      "sampler": "sampler_0",
      "source": "small",
      "target": 3553,
      "type": 5121
    }
  },
  "extensionsUsed": [],
  "animations": {},
  "cameras": {},
  "techniques": {
    "technique0": {
      "attributes": {
        "a_position": "position",
        "a_normal": "normal",
        "a_texcoord_0": "texcoord_0"
      },
      "parameters": {
        "modelViewMatrix": {
          "semantic": "MODELVIEW",
          "type": 35676
        },
        "projectionMatrix": {
          "semantic": "PROJECTION",
          "type": 35676
        },
        "normalMatrix": {
          "semantic": "MODELVIEWINVERSETRANSPOSE",
          "type": 35675
        },
        "ambient": {
          "type": 35666
        },
        "diffuse": {
          "type": 35678
        },
        "emission": {
          "type": 35666
        },
        "specular": {
          "type": 35666
        },
        "shininess": {
          "type": 5126
        },
        "transparency": {
          "type": 5126
        },
        "position": {
          "semantic": "POSITION",
          "type": 35665
        },
        "normal": {
          "semantic": "NORMAL",
          "type": 35665
        },
        "texcoord_0": {
          "semantic": "TEXCOORD_0",
          "type": 35664
        }
      },
      "program": "program0",
      "states": {
        "enable": [
          2884,
          2929
        ]
      },
      "uniforms": {
        "u_modelViewMatrix": "modelViewMatrix",
        "u_projectionMatrix": "projectionMatrix",
        "u_normalMatrix": "normalMatrix",
        "u_ambient": "ambient",
        "u_diffuse": "diffuse",
        "u_emission": "emission",
        "u_specular": "specular",
        "u_shininess": "shininess",
        "u_transparency": "transparency"
      }
    }
  },
  "programs": {
    "program0": {
      "attributes": [
        "a_position",
        "a_normal",
        "a_texcoord_0"
      ],
      "fragmentShader": "fragmentShader0",
      "vertexShader": "vertexShader0"
    }
  },
  "shaders": {
    "vertexShader0": {
      "type": 35633,
      "uri": "vertexShader0.glsl"
    },
    "fragmentShader0": {
      "type": 35632,
      "uri": "fragmentShader0.glsl"
    }
  },
  "skins": {},
  "extensions": {}
}
