{
  "accessors": {
    "accessor_index_0": {
      "bufferView": "bufferView_1",
      "byteOffset": 0,
      "byteStride": 0,
      "componentType": 5123,
      "count": 1152,
      "type": "SCALAR",
      "min": [
        0
      ],
      "max": [
        246
      ]
    },
    "accessor_position": {
      "bufferView": "bufferView_0",
      "byteOffset": 0,
      "byteStride": 0,
      "componentType": 5126,
      "count": 247,
      "min": [
        -0.09081900119781494,
        1.5635080337524414,
        -0.06344900280237198
      ],
      "max": [
        0.09081900119781494,
        1.7433170080184937,
        0.11982399970293045
      ],
      "type": "VEC3"
    },
    "accessor_normal": {
      "bufferView": "bufferView_0",
      "byteOffset": 2964,
      "byteStride": 0,
      "componentType": 5126,
      "count": 247,
      "type": "VEC3",
      "min": [
        -0.9999441504478455,
        -0.5577127933502197,
        -0.35778456926345825
      ],
      "max": [
        0.9999441504478455,
        0.3931206166744232,
        0.99195796251297
      ]
    },
    "accessor_uv": {
      "bufferView": "bufferView_0",
      "byteOffset": 5928,
      "byteStride": 0,
      "componentType": 5126,
      "count": 247,
      "type": "VEC2",
      "min": [
        0.5117999911308289,
        0.02759999968111515
      ],
      "max": [
        0.9911999702453613,
        0.2754000127315521
      ]
    }
  },
  "asset": {
    "generator": "OBJ2GLTF",
    "premultipliedAlpha": true,
    "profile": {
      "api": "WebGL",
      "version": "1.0"
    },
    "version": "1.0"
  },
  "buffers": {
    "buffer_0": {
      "type": "arraybuffer",
      "byteLength": 10208,
      "uri": "headHigh.bin"
    }
  },
  "bufferViews": {
    "bufferView_0": {
      "buffer": "buffer_0",
      "byteLength": 7904,
      "byteOffset": 0,
      "target": 34962
    },
    "bufferView_1": {
      "buffer": "buffer_0",
      "byteLength": 2304,
      "byteOffset": 7904,
      "target": 34963
    }
  },
  "images": {
    "small": {
      "uri": "small.jpg"
    }
  },
  "materials": {
    "material_Head": {
      "name": "Head",
      "extensions": {},
      "values": {
        "ambient": [
          0,
          0,
          0,
          1
        ],
        "diffuse": "texture_small",
        "emission": [
          0,
          0,
          0,
          1
        ],
        "specular": [
          0.012549,
          0.012549,
          0.012549,
          1
        ],
        "shininess": 96.078431,
        "transparency": 1
      }
    }
  },
  "meshes": {
    "mesh_s-series-f01": {
      "name": "s-series-f01",
      "primitives": [
        {
          "attributes": {
            "POSITION": "accessor_position",
            "NORMAL": "accessor_normal",
            "TEXCOORD_0": "accessor_uv"
          },
          "indices": "accessor_index_0",
          "material": "material_Head",
          "mode": 4
        }
      ]
    }
  },
  "nodes": {
    "rootNode": {
      "children": [],
      "meshes": [
        "mesh_s-series-f01"
      ],
      "matrix": [
        1,
        0,
        0,
        0,
        0,
        1,
        0,
        0,
        0,
        0,
        1,
        0,
        0,
        0,
        0,
        1
      ]
    }
  },
  "samplers": {
    "sampler_0": {
      "magFilter": 9729,
      "minFilter": 9986,
      "wrapS": 10497,
      "wrapT": 10497
    }
  },
  "scene": "scene_s-series-f01",
  "scenes": {
    "scene_s-series-f01": {
      "nodes": [
        "rootNode"
      ]
    }
  },
  "textures": {
    "texture_small": {
      "format": 6407,
      "internalFormat": 6407,
      "sampler": "sampler_0",
      "source": "small",
      "target": 3553,
      "type": 5121
    }
  },
  "extensionsUsed": [],
  "animations": {},
  "cameras": {},
  "techniques": {
    "technique0": {
      "attributes": {
        "a_position": "position",
        "a_normal": "normal",
        "a_texcoord_0": "texcoord_0"
      },
      "parameters": {
        "modelViewMatrix": {
          "semantic": "MODELVIEW",
          "type": 35676
        },
        "projectionMatrix": {
          "semantic": "PROJECTION",
          "type": 35676
        },
        "normalMatrix": {
          "semantic": "MODELVIEWINVERSETRANSPOSE",
          "type": 35675
        },
        "ambient": {
          "type": 35666
        },
        "diffuse": {
          "type": 35678
        },
        "emission": {
          "type": 35666
        },
        "specular": {
          "type": 35666
        },
        "shininess": {
          "type": 5126
        },
        "transparency": {
          "type": 5126
        },
        "position": {
          "semantic": "POSITION",
          "type": 35665
        },
        "normal": {
          "semantic": "NORMAL",
          "type": 35665
        },
        "texcoord_0": {
          "semantic": "TEXCOORD_0",
          "type": 35664
        }
      },
      "program": "program0",
      "states": {
        "enable": [
          2884,
          2929
        ]
      },
      "uniforms": {
        "u_modelViewMatrix": "modelViewMatrix",
        "u_projectionMatrix": "projectionMatrix",
        "u_normalMatrix": "normalMatrix",
        "u_ambient": "ambient",
        "u_diffuse": "diffuse",
        "u_emission": "emission",
        "u_specular": "specular",
        "u_shininess": "shininess",
        "u_transparency": "transparency"
      }
    }
  },
  "programs": {
    "program0": {
      "attributes": [
        "a_position",
        "a_normal",
        "a_texcoord_0"
      ],
      "fragmentShader": "fragmentShader0",
      "vertexShader": "vertexShader0"
    }
  },
  "shaders": {
    "vertexShader0": {
      "type": 35633,
      "uri": "vertexShader0.glsl"
    },
    "fragmentShader0": {
      "type": 35632,
      "uri": "fragmentShader0.glsl"
    }
  },
  "skins": {},
  "extensions": {}
}
