{
  "accessors": {
    "accessor_index_0": {
      "bufferView": "bufferView_1",
      "byteOffset": 0,
      "byteStride": 0,
      "componentType": 5123,
      "count": 84,
      "type": "SCALAR",
      "min": [
        0
      ],
      "max": [
        47
      ]
    },
    "accessor_position": {
      "bufferView": "bufferView_0",
      "byteOffset": 0,
      "byteStride": 0,
      "componentType": 5123,
      "count": 44,
      "min": [
        0,
        0,
        0
      ],
      "max": [
        65535,
        65535,
        65535
      ],
      "type": "VEC3",
      "extensions": {
        "WEB3D_quantized_attributes": {
          "decodedMin": [
            -0.0031999999191612005,
            0,
            -0.3499999940395355
          ],
          "decodedMax": [
            0.17000000178813934,
            0.09989999979734421,
            0.3499999940395355
          ],
          "decodeMatrix": [
            0.0000026428626185595566,
            0,
            0,
            0,
            0,
            0.0000015243762843876433,
            0,
            0,
            0,
            0,
            0.00001068131514578578,
            0,
            -0.0031999999191612005,
            0,
            -0.3499999940395355,
            1
          ]
        }
      }
    },
    "accessor_normal": {
      "bufferView": "bufferView_0",
      "byteOffset": 440,
      "byteStride": 0,
      "componentType": 5121,
      "count": 44,
      "type": "VEC2",
      "min": [
        4,
        0
      ],
      "max": [
        255,
        255
      ]
    },
    "accessor_uv": {
      "bufferView": "bufferView_0",
      "byteOffset": 264,
      "byteStride": 0,
      "componentType": 5123,
      "count": 44,
      "type": "VEC2",
      "min": [
        0,
        0
      ],
      "max": [
        65535,
        65535
      ],
      "extensions": {
        "WEB3D_quantized_attributes": {
          "decodedMin": [
            0.019999999552965164,
            0.03750000149011612
          ],
          "decodedMax": [
            0.9800000190734863,
            0.9800000190734863
          ],
          "decodeMatrix": [
            0.000014648661318692625,
            0,
            0,
            0,
            0.000014381628405941409,
            0,
            0.019999999552965164,
            0.03750000149011612,
            1
          ]
        }
      }
    }
  },
  "asset": {
    "generator": "OBJ2GLTF",
    "premultipliedAlpha": true,
    "profile": {
      "api": "WebGL",
      "version": "1.0"
    },
    "version": "1.0"
  },
  "buffers": {
    "buffer_0": {
      "type": "arraybuffer",
      "byteLength": 696,
      "uri": "data:application/octet-stream;base64,"
    }
  },
  "bufferViews": {
    "bufferView_0": {
      "buffer": "buffer_0",
      "byteLength": 528,
      "byteOffset": 0,
      "target": 34962
    },
    "bufferView_1": {
      "buffer": "buffer_0",
      "byteLength": 168,
      "byteOffset": 528,
      "target": 34963
    }
  },
  "images": {
    "centerpieceTexture": {
      "uri": "data:image/png;base64,"
    }
  },
  "materials": {
    "material_Unwrap_Texture_Checker_Material": {
      "name": "Unwrap_Texture_Checker_Material",
      "extensions": {},
      "values": {
        "ambient": [
          0,
          0,
          0,
          1
        ],
        "diffuse": "texture_centerpieceTexture",
        "emission": [
          0,
          0,
          0,
          1
        ],
        "specular": [
          0,
          0,
          0,
          1
        ],
        "shininess": 10,
        "transparency": 1
      },
      "technique": "technique0"
    }
  },
  "meshes": {
    "mesh_centerpiece": {
      "name": "centerpiece",
      "primitives": [
        {
          "attributes": {
            "POSITION": "accessor_position",
            "NORMAL": "accessor_normal",
            "TEXCOORD_0": "accessor_uv"
          },
          "indices": "accessor_index_0",
          "material": "material_Unwrap_Texture_Checker_Material",
          "mode": 4
        }
      ]
    }
  },
  "nodes": {
    "rootNode": {
      "children": [],
      "meshes": [
        "mesh_centerpiece"
      ],
      "matrix": [
        1,
        0,
        0,
        0,
        0,
        1,
        0,
        0,
        0,
        0,
        1,
        0,
        0,
        0,
        0,
        1
      ]
    }
  },
  "samplers": {
    "sampler_0": {
      "magFilter": 9729,
      "minFilter": 9986,
      "wrapS": 10497,
      "wrapT": 10497
    }
  },
  "scene": "scene_centerpiece",
  "scenes": {
    "scene_centerpiece": {
      "nodes": [
        "rootNode"
      ]
    }
  },
  "textures": {
    "texture_centerpieceTexture": {
      "format": 6407,
      "internalFormat": 6407,
      "sampler": "sampler_0",
      "source": "centerpieceTexture",
      "target": 3553,
      "type": 5121
    }
  },
  "extensionsUsed": [
    "WEB3D_quantized_attributes"
  ],
  "animations": {},
  "cameras": {},
  "techniques": {
    "technique0": {
      "attributes": {
        "a_position": "position",
        "a_normal": "normal",
        "a_texcoord_0": "texcoord_0"
      },
      "parameters": {
        "modelViewMatrix": {
          "semantic": "MODELVIEW",
          "type": 35676
        },
        "projectionMatrix": {
          "semantic": "PROJECTION",
          "type": 35676
        },
        "normalMatrix": {
          "semantic": "MODELVIEWINVERSETRANSPOSE",
          "type": 35675
        },
        "ambient": {
          "type": 35666
        },
        "diffuse": {
          "type": 35678
        },
        "emission": {
          "type": 35666
        },
        "specular": {
          "type": 35666
        },
        "shininess": {
          "type": 5126
        },
        "transparency": {
          "type": 5126
        },
        "position": {
          "semantic": "POSITION",
          "type": 35665
        },
        "normal": {
          "semantic": "NORMAL",
          "type": 35667
        },
        "texcoord_0": {
          "semantic": "TEXCOORD_0",
          "type": 35664
        }
      },
      "program": "program0",
      "states": {
        "enable": [
          2884,
          2929
        ]
      },
      "uniforms": {
        "u_modelViewMatrix": "modelViewMatrix",
        "u_projectionMatrix": "projectionMatrix",
        "u_normalMatrix": "normalMatrix",
        "u_ambient": "ambient",
        "u_diffuse": "diffuse",
        "u_emission": "emission",
        "u_specular": "specular",
        "u_shininess": "shininess",
        "u_transparency": "transparency"
      }
    }
  },
  "programs": {
    "program0": {
      "attributes": [
        "a_position",
        "a_normal",
        "a_texcoord_0"
      ],
      "fragmentShader": "fragmentShader0",
      "vertexShader": "vertexShader0"
    }
  },
  "shaders": {
    "vertexShader0": {
      "type": 35633,
      "uri": "data:text/plain;base64,"
    },
    "fragmentShader0": {
      "type": 35632,
      "uri": "data:text/plain;base64,"
    }
  },
  "skins": {},
  "extensions": {}
}
