# 3ds Max Wavefront OBJ Exporter v0.97b - (c)2007 guruware
# File Created: 15.02.2017 23:17:13

mtllib chip.mtl

#
# object Cylinder001
#

v  0.0000 0.0000 -0.0000
v  0.0183 0.0000 -0.0067
v  0.0192 0.0000 -0.0034
v  0.0195 0.0000 -0.0000
v  0.0149 0.0000 -0.0125
v  0.0169 0.0000 -0.0098
v  0.0097 0.0000 -0.0169
v  0.0125 0.0000 -0.0149
v  0.0034 0.0000 -0.0192
v  0.0067 0.0000 -0.0183
v  -0.0034 0.0000 -0.0192
v  0.0000 0.0000 -0.0195
v  -0.0097 0.0000 -0.0169
v  -0.0067 0.0000 -0.0183
v  -0.0149 0.0000 -0.0125
v  -0.0125 0.0000 -0.0149
v  -0.0183 0.0000 -0.0067
v  -0.0169 0.0000 -0.0098
v  -0.0195 0.0000 -0.0000
v  -0.0192 0.0000 -0.0034
v  -0.0183 0.0000 0.0067
v  -0.0192 0.0000 0.0034
v  -0.0149 0.0000 0.0125
v  -0.0169 0.0000 0.0097
v  -0.0098 0.0000 0.0169
v  -0.0125 0.0000 0.0149
v  -0.0034 0.0000 0.0192
v  -0.0067 0.0000 0.0183
v  0.0034 0.0000 0.0192
v  -0.0000 0.0000 0.0195
v  0.0097 0.0000 0.0169
v  0.0067 0.0000 0.0183
v  0.0149 0.0000 0.0125
v  0.0125 0.0000 0.0149
v  0.0183 0.0000 0.0067
v  0.0169 0.0000 0.0098
v  0.0192 0.0000 0.0034
v  0.0192 0.0035 -0.0034
v  0.0195 0.0035 -0.0000
v  0.0183 0.0035 -0.0067
v  0.0169 0.0035 -0.0098
v  0.0149 0.0035 -0.0125
v  0.0125 0.0035 -0.0149
v  0.0097 0.0035 -0.0169
v  0.0067 0.0035 -0.0183
v  0.0034 0.0035 -0.0192
v  0.0000 0.0035 -0.0195
v  -0.0034 0.0035 -0.0192
v  -0.0067 0.0035 -0.0183
v  -0.0097 0.0035 -0.0169
v  -0.0125 0.0035 -0.0149
v  -0.0149 0.0035 -0.0125
v  -0.0169 0.0035 -0.0098
v  -0.0183 0.0035 -0.0067
v  -0.0192 0.0035 -0.0034
v  -0.0195 0.0035 -0.0000
v  -0.0192 0.0035 0.0034
v  -0.0183 0.0035 0.0067
v  -0.0169 0.0035 0.0097
v  -0.0149 0.0035 0.0125
v  -0.0125 0.0035 0.0149
v  -0.0098 0.0035 0.0169
v  -0.0067 0.0035 0.0183
v  -0.0034 0.0035 0.0192
v  -0.0000 0.0035 0.0195
v  0.0034 0.0035 0.0192
v  0.0067 0.0035 0.0183
v  0.0097 0.0035 0.0169
v  0.0125 0.0035 0.0149
v  0.0149 0.0035 0.0125
v  0.0169 0.0035 0.0098
v  0.0183 0.0035 0.0067
v  0.0192 0.0035 0.0034
v  0.0000 0.0035 -0.0000
# 74 vertices

vn 0.0000 -1.0000 -0.0000
vn 1.0000 0.0000 0.0000
vn 0.9848 0.0000 -0.1736
vn 0.9397 0.0000 -0.3420
vn 0.8660 0.0000 -0.5000
vn 0.7660 0.0000 -0.6428
vn 0.6428 0.0000 -0.7660
vn 0.5000 0.0000 -0.8660
vn 0.3420 0.0000 -0.9397
vn 0.1736 0.0000 -0.9848
vn 0.0000 0.0000 -1.0000
vn -0.1736 0.0000 -0.9848
vn -0.3420 0.0000 -0.9397
vn -0.5000 0.0000 -0.8660
vn -0.6428 0.0000 -0.7660
vn -0.7660 0.0000 -0.6428
vn -0.8660 0.0000 -0.5000
vn -0.9397 0.0000 -0.3420
vn -0.9848 0.0000 -0.1736
vn -1.0000 0.0000 -0.0000
vn -0.9848 0.0000 0.1736
vn -0.9397 0.0000 0.3420
vn -0.8660 0.0000 0.5000
vn -0.7660 0.0000 0.6428
vn -0.6428 0.0000 0.7660
vn -0.5000 0.0000 0.8660
vn -0.3420 0.0000 0.9397
vn -0.1736 0.0000 0.9848
vn -0.0000 0.0000 1.0000
vn 0.1736 0.0000 0.9848
vn 0.3420 0.0000 0.9397
vn 0.5000 0.0000 0.8660
vn 0.6428 0.0000 0.7660
vn 0.7660 0.0000 0.6428
vn 0.8660 0.0000 0.5000
vn 0.9397 0.0000 0.3420
vn 0.9848 0.0000 0.1736
vn 0.0000 1.0000 -0.0000
# 38 vertex normals

vt 0.8396 0.1613 0.0000
vt 0.9744 0.1122 0.0000
vt 0.9809 0.1364 0.0000
vt 0.9831 0.1613 0.0000
vt 0.9495 0.0690 0.0000
vt 0.9639 0.0895 0.0000
vt 0.9114 0.0370 0.0000
vt 0.9318 0.0514 0.0000
vt 0.8645 0.0200 0.0000
vt 0.8887 0.0264 0.0000
vt 0.8147 0.0200 0.0000
vt 0.8396 0.0178 0.0000
vt 0.7679 0.0370 0.0000
vt 0.7906 0.0264 0.0000
vt 0.7297 0.0690 0.0000
vt 0.7474 0.0514 0.0000
vt 0.7048 0.1122 0.0000
vt 0.7154 0.0895 0.0000
vt 0.6962 0.1613 0.0000
vt 0.6983 0.1364 0.0000
vt 0.7048 0.2103 0.0000
vt 0.6983 0.1862 0.0000
vt 0.7297 0.2535 0.0000
vt 0.7154 0.2330 0.0000
vt 0.7679 0.2855 0.0000
vt 0.7474 0.2712 0.0000
vt 0.8147 0.3026 0.0000
vt 0.7906 0.2961 0.0000
vt 0.8645 0.3026 0.0000
vt 0.8396 0.3047 0.0000
vt 0.9114 0.2855 0.0000
vt 0.8887 0.2961 0.0000
vt 0.9495 0.2535 0.0000
vt 0.9318 0.2712 0.0000
vt 0.9744 0.2103 0.0000
vt 0.9639 0.2330 0.0000
vt 0.9809 0.1862 0.0000
vt 0.0555 0.0155 1.0000
vt 0.1235 0.0155 1.0000
vt 0.1235 0.0505 1.0000
vt 0.0555 0.0505 1.0000
vt 0.1916 0.0155 1.0000
vt 0.1916 0.0505 1.0000
vt 0.2597 0.0155 1.0000
vt 0.2597 0.0505 1.0000
vt 0.3278 0.0155 1.0000
vt 0.3278 0.0505 1.0000
vt 0.3958 0.0155 1.0000
vt 0.3958 0.0505 1.0000
vt 0.4639 0.0155 1.0000
vt 0.4639 0.0505 1.0000
vt 0.5320 0.0155 1.0000
vt 0.5320 0.0505 1.0000
vt 0.6000 0.0155 1.0000
vt 0.6000 0.0505 1.0000
vt 0.6681 0.0155 1.0000
vt 0.6681 0.0505 1.0000
vt 0.0555 0.1205 1.0000
vt 0.1235 0.1205 1.0000
vt 0.1235 0.1555 1.0000
vt 0.0555 0.1555 1.0000
vt 0.1916 0.1205 1.0000
vt 0.1916 0.1555 1.0000
vt 0.2597 0.1205 1.0000
vt 0.2597 0.1555 1.0000
vt 0.3278 0.1205 1.0000
vt 0.3278 0.1555 1.0000
vt 0.3958 0.1205 1.0000
vt 0.3958 0.1555 1.0000
vt 0.4639 0.1205 1.0000
vt 0.4639 0.1555 1.0000
vt 0.5320 0.1205 1.0000
vt 0.5320 0.1555 1.0000
vt 0.6000 0.1205 1.0000
vt 0.6000 0.1555 1.0000
vt 0.6681 0.1205 1.0000
vt 0.6681 0.1555 1.0000
vt 0.1235 0.0855 1.0000
vt 0.0555 0.0855 1.0000
vt 0.1916 0.0855 1.0000
vt 0.2597 0.0855 1.0000
vt 0.3278 0.0855 1.0000
vt 0.3958 0.0855 1.0000
vt 0.4639 0.0855 1.0000
vt 0.5320 0.0855 1.0000
vt 0.6000 0.0855 1.0000
vt 0.6681 0.0855 1.0000
vt 0.4318 0.5812 0.0000
vt 0.8162 0.5133 0.0000
vt 0.8221 0.5812 0.0000
vt 0.8162 0.6492 0.0000
vt 0.7986 0.7151 0.0000
vt 0.7697 0.7769 0.0000
vt 0.7306 0.8327 0.0000
vt 0.6824 0.8810 0.0000
vt 0.6265 0.9201 0.0000
vt 0.5647 0.9489 0.0000
vt 0.4988 0.9666 0.0000
vt 0.4309 0.9725 0.0000
vt 0.3629 0.9666 0.0000
vt 0.2971 0.9489 0.0000
vt 0.2353 0.9201 0.0000
vt 0.1803 0.8810 0.0000
vt 0.1321 0.8327 0.0000
vt 0.0930 0.7769 0.0000
vt 0.0642 0.7151 0.0000
vt 0.0456 0.6492 0.0000
vt 0.0396 0.5812 0.0000
vt 0.0456 0.5133 0.0000
vt 0.0632 0.4474 0.0000
vt 0.0921 0.3856 0.0000
vt 0.1312 0.3297 0.0000
vt 0.1794 0.2815 0.0000
vt 0.2353 0.2424 0.0000
vt 0.2971 0.2136 0.0000
vt 0.3629 0.1959 0.0000
vt 0.4309 0.1900 0.0000
vt 0.4988 0.1959 0.0000
vt 0.5647 0.2136 0.0000
vt 0.6265 0.2424 0.0000
vt 0.6824 0.2815 0.0000
vt 0.7306 0.3297 0.0000
vt 0.7697 0.3856 0.0000
vt 0.7986 0.4474 0.0000
# 124 texture coords

g Cylinder001
usemtl Material__25
s 1
f 1/1/1 2/2/1 3/3/1 4/4/1 
f 1/1/1 5/5/1 6/6/1 2/2/1 
f 1/1/1 7/7/1 8/8/1 5/5/1 
f 1/1/1 9/9/1 10/10/1 7/7/1 
f 1/1/1 11/11/1 12/12/1 9/9/1 
f 1/1/1 13/13/1 14/14/1 11/11/1 
f 1/1/1 15/15/1 16/16/1 13/13/1 
f 1/1/1 17/17/1 18/18/1 15/15/1 
f 1/1/1 19/19/1 20/20/1 17/17/1 
f 1/1/1 21/21/1 22/22/1 19/19/1 
f 1/1/1 23/23/1 24/24/1 21/21/1 
f 1/1/1 25/25/1 26/26/1 23/23/1 
f 1/1/1 27/27/1 28/28/1 25/25/1 
f 1/1/1 29/29/1 30/30/1 27/27/1 
f 1/1/1 31/31/1 32/32/1 29/29/1 
f 1/1/1 33/33/1 34/34/1 31/31/1 
f 1/1/1 35/35/1 36/36/1 33/33/1 
f 1/1/1 4/4/1 37/37/1 35/35/1 
s 8
f 4/38/2 3/39/3 38/40/3 39/41/2 
f 3/39/3 2/42/4 40/43/4 38/40/3 
f 2/42/4 6/44/5 41/45/5 40/43/4 
f 6/44/5 5/46/6 42/47/6 41/45/5 
f 5/46/6 8/48/7 43/49/7 42/47/6 
f 8/48/7 7/50/8 44/51/8 43/49/7 
f 7/50/8 10/52/9 45/53/9 44/51/8 
f 10/52/9 9/54/10 46/55/10 45/53/9 
f 9/54/10 12/56/11 47/57/11 46/55/10 
f 12/58/11 11/59/12 48/60/12 47/61/11 
f 11/59/12 14/62/13 49/63/13 48/60/12 
f 14/62/13 13/64/14 50/65/14 49/63/13 
f 13/64/14 16/66/15 51/67/15 50/65/14 
f 16/66/15 15/68/16 52/69/16 51/67/15 
f 15/68/16 18/70/17 53/71/17 52/69/16 
f 18/70/17 17/72/18 54/73/18 53/71/17 
f 17/72/18 20/74/19 55/75/19 54/73/18 
f 20/74/19 19/76/20 56/77/20 55/75/19 
f 19/41/20 22/40/21 57/78/21 56/79/20 
f 22/40/21 21/43/22 58/80/22 57/78/21 
f 21/43/22 24/45/23 59/81/23 58/80/22 
f 24/45/23 23/47/24 60/82/24 59/81/23 
f 23/47/24 26/49/25 61/83/25 60/82/24 
f 26/49/25 25/51/26 62/84/26 61/83/25 
f 25/51/26 28/53/27 63/85/27 62/84/26 
f 28/53/27 27/55/28 64/86/28 63/85/27 
f 27/55/28 30/57/29 65/87/29 64/86/28 
f 30/79/29 29/78/30 66/59/30 65/58/29 
f 29/78/30 32/80/31 67/62/31 66/59/30 
f 32/80/31 31/81/32 68/64/32 67/62/31 
f 31/81/32 34/82/33 69/66/33 68/64/32 
f 34/82/33 33/83/34 70/68/34 69/66/33 
f 33/83/34 36/84/35 71/70/35 70/68/34 
f 36/84/35 35/85/36 72/72/36 71/70/35 
f 35/85/36 37/86/37 73/74/37 72/72/36 
f 37/86/37 4/87/2 39/76/2 73/74/37 
s 1
f 74/88/38 73/89/38 39/90/38 38/91/38 
f 74/88/38 38/91/38 40/92/38 41/93/38 
f 74/88/38 41/93/38 42/94/38 43/95/38 
f 74/88/38 43/95/38 44/96/38 45/97/38 
f 74/88/38 45/97/38 46/98/38 47/99/38 
f 74/88/38 47/99/38 48/100/38 49/101/38 
f 74/88/38 49/101/38 50/102/38 51/103/38 
f 74/88/38 51/103/38 52/104/38 53/105/38 
f 74/88/38 53/105/38 54/106/38 55/107/38 
f 74/88/38 55/107/38 56/108/38 57/109/38 
f 74/88/38 57/109/38 58/110/38 59/111/38 
f 74/88/38 59/111/38 60/112/38 61/113/38 
f 74/88/38 61/113/38 62/114/38 63/115/38 
f 74/88/38 63/115/38 64/116/38 65/117/38 
f 74/88/38 65/117/38 66/118/38 67/119/38 
f 74/88/38 67/119/38 68/120/38 69/121/38 
f 74/88/38 69/121/38 70/122/38 71/123/38 
f 74/88/38 71/123/38 72/124/38 73/89/38 
# 72 polygons
