{
  "accessors": {
    "accessor_index_0": {
      "bufferView": "bufferView_1",
      "byteOffset": 0,
      "byteStride": 0,
      "componentType": 5123,
      "count": 432,
      "type": "SCALAR",
      "min": [
        0
      ],
      "max": [
        153
      ]
    },
    "accessor_position": {
      "bufferView": "bufferView_0",
      "byteOffset": 0,
      "byteStride": 0,
      "componentType": 5123,
      "count": 154,
      "min": [
        0,
        0,
        0
      ],
      "max": [
        65535,
        65535,
        65535
      ],
      "type": "VEC3",
      "extensions": {
        "WEB3D_quantized_attributes": {
          "decodedMin": [
            -0.019500000402331352,
            0,
            -0.019500000402331352
          ],
          "decodedMax": [
            0.019500000402331352,
            0.0035000001080334187,
            0.019500000402331352
          ],
          "decodeMatrix": [
            5.951018662495263e-7,
            0,
            0,
            0,
            0,
            5.340657828692178e-8,
            0,
            0,
            0,
            0,
            5.951018662495263e-7,
            0,
            -0.019500000402331352,
            0,
            -0.019500000402331352,
            1
          ]
        }
      }
    },
    "accessor_normal": {
      "bufferView": "bufferView_0",
      "byteOffset": 1540,
      "byteStride": 0,
      "componentType": 5121,
      "count": 154,
      "type": "VEC2",
      "min": [
        0,
        0
      ],
      "max": [
        255,
        255
      ]
    },
    "accessor_uv": {
      "bufferView": "bufferView_0",
      "byteOffset": 924,
      "byteStride": 0,
      "componentType": 5123,
      "count": 154,
      "type": "VEC2",
      "min": [
        0,
        0
      ],
      "max": [
        65535,
        65535
      ],
      "extensions": {
        "WEB3D_quantized_attributes": {
          "decodedMin": [
            0.03959999978542328,
            0.027499999850988388
          ],
          "decodedMax": [
            0.9830999970436096,
            0.984499990940094
          ],
          "decodeMatrix": [
            0.000014396887117695679,
            0,
            0,
            0,
            0.000014602883819166943,
            0,
            0.03959999978542328,
            0.027499999850988388,
            1
          ]
        }
      }
    }
  },
  "asset": {
    "generator": "OBJ2GLTF",
    "premultipliedAlpha": true,
    "profile": {
      "api": "WebGL",
      "version": "1.0"
    },
    "version": "1.0"
  },
  "buffers": {
    "buffer_0": {
      "type": "arraybuffer",
      "byteLength": 2712,
      "uri": "data:application/octet-stream;base64,"
    }
  },
  "bufferViews": {
    "bufferView_0": {
      "buffer": "buffer_0",
      "byteLength": 1848,
      "byteOffset": 0,
      "target": 34962
    },
    "bufferView_1": {
      "buffer": "buffer_0",
      "byteLength": 864,
      "byteOffset": 1848,
      "target": 34963
    }
  },
  "images": {
    "chip10": {
      "uri": "data:image/png;base64,"
    }
  },
  "materials": {
    "material_Material__25": {
      "name": "Material__25",
      "extensions": {},
      "values": {
        "ambient": [
          0,
          0,
          0,
          1
        ],
        "diffuse": "texture_chip10",
        "emission": [
          0,
          0,
          0,
          1
        ],
        "specular": [
          0,
          0,
          0,
          1
        ],
        "shininess": 10,
        "transparency": 1
      },
      "technique": "technique0"
    }
  },
  "meshes": {
    "mesh_chip": {
      "name": "chip",
      "primitives": [
        {
          "attributes": {
            "POSITION": "accessor_position",
            "NORMAL": "accessor_normal",
            "TEXCOORD_0": "accessor_uv"
          },
          "indices": "accessor_index_0",
          "material": "material_Material__25",
          "mode": 4
        }
      ]
    }
  },
  "nodes": {
    "rootNode": {
      "children": [],
      "meshes": [
        "mesh_chip"
      ],
      "matrix": [
        1,
        0,
        0,
        0,
        0,
        1,
        0,
        0,
        0,
        0,
        1,
        0,
        0,
        0,
        0,
        1
      ]
    }
  },
  "samplers": {
    "sampler_0": {
      "magFilter": 9729,
      "minFilter": 9986,
      "wrapS": 10497,
      "wrapT": 10497
    }
  },
  "scene": "scene_chip",
  "scenes": {
    "scene_chip": {
      "nodes": [
        "rootNode"
      ]
    }
  },
  "textures": {
    "texture_chip10": {
      "format": 6407,
      "internalFormat": 6407,
      "sampler": "sampler_0",
      "source": "chip10",
      "target": 3553,
      "type": 5121
    }
  },
  "extensionsUsed": [
    "WEB3D_quantized_attributes"
  ],
  "animations": {},
  "cameras": {},
  "techniques": {
    "technique0": {
      "attributes": {
        "a_position": "position",
        "a_normal": "normal",
        "a_texcoord_0": "texcoord_0"
      },
      "parameters": {
        "modelViewMatrix": {
          "semantic": "MODELVIEW",
          "type": 35676
        },
        "projectionMatrix": {
          "semantic": "PROJECTION",
          "type": 35676
        },
        "normalMatrix": {
          "semantic": "MODELVIEWINVERSETRANSPOSE",
          "type": 35675
        },
        "ambient": {
          "type": 35666
        },
        "diffuse": {
          "type": 35678
        },
        "emission": {
          "type": 35666
        },
        "specular": {
          "type": 35666
        },
        "shininess": {
          "type": 5126
        },
        "transparency": {
          "type": 5126
        },
        "position": {
          "semantic": "POSITION",
          "type": 35665
        },
        "normal": {
          "semantic": "NORMAL",
          "type": 35667
        },
        "texcoord_0": {
          "semantic": "TEXCOORD_0",
          "type": 35664
        }
      },
      "program": "program0",
      "states": {
        "enable": [
          2884,
          2929
        ]
      },
      "uniforms": {
        "u_modelViewMatrix": "modelViewMatrix",
        "u_projectionMatrix": "projectionMatrix",
        "u_normalMatrix": "normalMatrix",
        "u_ambient": "ambient",
        "u_diffuse": "diffuse",
        "u_emission": "emission",
        "u_specular": "specular",
        "u_shininess": "shininess",
        "u_transparency": "transparency"
      }
    }
  },
  "programs": {
    "program0": {
      "attributes": [
        "a_position",
        "a_normal",
        "a_texcoord_0"
      ],
      "fragmentShader": "fragmentShader0",
      "vertexShader": "vertexShader0"
    }
  },
  "shaders": {
    "vertexShader0": {
      "type": 35633,
      "uri": "data:text/plain;base64,"
    },
    "fragmentShader0": {
      "type": 35632,
      "uri": "data:text/plain;base64,"
    }
  },
  "skins": {},
  "extensions": {}
}
