# 3ds Max Wavefront OBJ Exporter v0.97b - (c)2007 guruware
# File Created: 03.02.2017 02:14:07

mtllib chip.mtl

#
# object Cylinder001
#

v  0.0000 0.0000 -0.0000
v  0.2988 0.0000 -0.2507
v  0.3665 0.0000 -0.1334
v  0.3900 0.0000 -0.0000
v  0.0677 0.0000 -0.3841
v  0.1950 0.0000 -0.3377
v  -0.1950 0.0000 -0.3377
v  -0.0677 0.0000 -0.3841
v  -0.3665 0.0000 -0.1334
v  -0.2988 0.0000 -0.2507
v  -0.3665 0.0000 0.1334
v  -0.3900 0.0000 -0.0000
v  -0.1950 0.0000 0.3377
v  -0.2988 0.0000 0.2507
v  0.0677 0.0000 0.3841
v  -0.0677 0.0000 0.3841
v  0.2988 0.0000 0.2507
v  0.1950 0.0000 0.3378
v  0.3665 0.0000 0.1334
v  0.3665 0.0350 -0.1334
v  0.3900 0.0350 -0.0000
v  0.2988 0.0350 -0.2507
v  0.1950 0.0350 -0.3377
v  0.0677 0.0350 -0.3841
v  -0.0677 0.0350 -0.3841
v  -0.1950 0.0350 -0.3377
v  -0.2988 0.0350 -0.2507
v  -0.3665 0.0350 -0.1334
v  -0.3900 0.0350 -0.0000
v  -0.3665 0.0350 0.1334
v  -0.2988 0.0350 0.2507
v  -0.1950 0.0350 0.3377
v  -0.0677 0.0350 0.3841
v  0.0677 0.0350 0.3841
v  0.1950 0.0350 0.3378
v  0.2988 0.0350 0.2507
v  0.3665 0.0350 0.1334
v  0.0000 0.0350 -0.0000
# 38 vertices

vn 0.0000 -1.0000 -0.0000
vn 1.0000 0.0000 0.0000
vn 0.9397 0.0000 -0.3420
vn 0.7660 0.0000 -0.6428
vn 0.5000 0.0000 -0.8660
vn 0.1736 0.0000 -0.9848
vn -0.1736 0.0000 -0.9848
vn -0.5000 0.0000 -0.8660
vn -0.7660 0.0000 -0.6428
vn -0.9397 0.0000 -0.3420
vn -1.0000 0.0000 -0.0000
vn -0.9397 0.0000 0.3420
vn -0.7660 0.0000 0.6428
vn -0.5000 0.0000 0.8660
vn -0.1736 0.0000 0.9848
vn 0.1736 0.0000 0.9848
vn 0.5000 0.0000 0.8660
vn 0.7660 0.0000 0.6428
vn 0.9397 0.0000 0.3420
vn 0.0000 1.0000 -0.0000
# 20 vertex normals

vt 0.9160 0.0776 0.0000
vt 0.8579 0.1112 0.0000
vt 0.8499 0.0893 0.0000
vt 0.8499 0.0660 0.0000
vt 0.8930 0.1407 0.0000
vt 0.8728 0.1290 0.0000
vt 0.9390 0.1407 0.0000
vt 0.9160 0.1448 0.0000
vt 0.9741 0.1112 0.0000
vt 0.9591 0.1290 0.0000
vt 0.9821 0.0660 0.0000
vt 0.9821 0.0893 0.0000
vt 0.9591 0.0262 0.0000
vt 0.9741 0.0441 0.0000
vt 0.9160 0.0105 0.0000
vt 0.9390 0.0145 0.0000
vt 0.8728 0.0262 0.0000
vt 0.8930 0.0145 0.0000
vt 0.8579 0.0441 0.0000
vt 0.5756 0.0477 0.0000
vt 0.4889 0.0477 0.0000
vt 0.4889 0.0249 0.0000
vt 0.5756 0.0249 0.0000
vt 0.4127 0.0477 0.0000
vt 0.4127 0.0249 0.0000
vt 0.3453 0.0477 0.0000
vt 0.3453 0.0249 0.0000
vt 0.2627 0.0477 0.0000
vt 0.2627 0.0249 0.0000
vt 0.1747 0.0477 0.0000
vt 0.1747 0.0249 0.0000
vt 0.0920 0.0477 0.0000
vt 0.0920 0.0249 0.0000
vt 0.0246 0.0477 0.0000
vt 0.0246 0.0249 0.0000
vt 0.7384 0.0704 0.0000
vt 0.6622 0.0704 0.0000
vt 0.6622 0.0477 0.0000
vt 0.7384 0.0477 0.0000
vt 0.5756 0.0704 0.0000
vt 0.4889 0.0704 0.0000
vt 0.4127 0.0704 0.0000
vt 0.3453 0.0704 0.0000
vt 0.2627 0.0704 0.0000
vt 0.1747 0.0704 0.0000
vt 0.0920 0.0704 0.0000
vt 0.0246 0.0704 0.0000
vt 0.6622 0.0249 0.0000
vt 0.7384 0.0249 0.0000
vt 0.4720 0.5341 0.0000
vt 0.9208 0.4549 0.0000
vt 0.9208 0.6132 0.0000
vt 0.8667 0.7619 0.0000
vt 0.7649 0.8832 0.0000
vt 0.6279 0.9623 0.0000
vt 0.4720 0.9898 0.0000
vt 0.3161 0.9623 0.0000
vt 0.1791 0.8832 0.0000
vt 0.0773 0.7619 0.0000
vt 0.0232 0.6132 0.0000
vt 0.0232 0.4549 0.0000
vt 0.0773 0.3062 0.0000
vt 0.1791 0.1849 0.0000
vt 0.3161 0.1058 0.0000
vt 0.4720 0.0783 0.0000
vt 0.6279 0.1058 0.0000
vt 0.7649 0.1849 0.0000
vt 0.8667 0.3062 0.0000
# 68 texture coords

g Cylinder001
usemtl Material__25
s 1
f 1/1/1 2/2/1 3/3/1 4/4/1 
f 1/1/1 5/5/1 6/6/1 2/2/1 
f 1/1/1 7/7/1 8/8/1 5/5/1 
f 1/1/1 9/9/1 10/10/1 7/7/1 
f 1/1/1 11/11/1 12/12/1 9/9/1 
f 1/1/1 13/13/1 14/14/1 11/11/1 
f 1/1/1 15/15/1 16/16/1 13/13/1 
f 1/1/1 17/17/1 18/18/1 15/15/1 
f 1/1/1 4/4/1 19/19/1 17/17/1 
s 8
f 4/20/2 3/21/3 20/22/3 21/23/2 
f 3/21/3 2/24/4 22/25/4 20/22/3 
f 2/24/4 6/26/5 23/27/5 22/25/4 
f 6/26/5 5/28/6 24/29/6 23/27/5 
f 5/28/6 8/30/7 25/31/7 24/29/6 
f 8/30/7 7/32/8 26/33/8 25/31/7 
f 7/32/8 10/34/9 27/35/9 26/33/8 
f 10/36/9 9/37/10 28/38/10 27/39/9 
f 9/37/10 12/40/11 29/20/11 28/38/10 
f 12/40/11 11/41/12 30/21/12 29/20/11 
f 11/41/12 14/42/13 31/24/13 30/21/12 
f 14/42/13 13/43/14 32/26/14 31/24/13 
f 13/43/14 16/44/15 33/28/15 32/26/14 
f 16/44/15 15/45/16 34/30/16 33/28/15 
f 15/45/16 18/46/17 35/32/17 34/30/16 
f 18/46/17 17/47/18 36/34/18 35/32/17 
f 17/39/18 19/38/19 37/48/19 36/49/18 
f 19/38/19 4/20/2 21/23/2 37/48/19 
s 1
f 38/50/20 37/51/20 21/52/20 20/53/20 
f 38/50/20 20/53/20 22/54/20 23/55/20 
f 38/50/20 23/55/20 24/56/20 25/57/20 
f 38/50/20 25/57/20 26/58/20 27/59/20 
f 38/50/20 27/59/20 28/60/20 29/61/20 
f 38/50/20 29/61/20 30/62/20 31/63/20 
f 38/50/20 31/63/20 32/64/20 33/65/20 
f 38/50/20 33/65/20 34/66/20 35/67/20 
f 38/50/20 35/67/20 36/68/20 37/51/20 
# 36 polygons

