# 3ds Max Wavefront OBJ Exporter v0.97b - (c)2007 guruware
# File Created: 17.02.2017 03:27:51

mtllib deck.mtl

#
# object Box001
#

v  -0.0500 0.0000 0.0850
v  -0.0536 0.0000 0.0846
v  -0.0564 0.0000 0.0834
v  -0.0584 0.0000 0.0814
v  -0.0596 0.0000 0.0786
v  -0.0600 0.0000 0.0750
v  -0.0600 0.0000 -0.0750
v  -0.0596 0.0000 -0.0786
v  -0.0584 0.0000 -0.0814
v  -0.0564 0.0000 -0.0834
v  -0.0536 0.0000 -0.0846
v  -0.0500 0.0000 -0.0850
v  0.0500 0.0000 -0.0850
v  0.0536 0.0000 -0.0846
v  0.0564 0.0000 -0.0834
v  0.0584 0.0000 -0.0814
v  0.0596 0.0000 -0.0786
v  0.0600 0.0000 -0.0750
v  0.0600 0.0000 0.0750
v  0.0596 0.0000 0.0786
v  0.0584 0.0000 0.0814
v  0.0564 0.0000 0.0834
v  0.0536 0.0000 0.0846
v  0.0500 0.0000 0.0850
v  -0.0600 0.0250 0.0750
v  -0.0596 0.0250 0.0786
v  -0.0584 0.0250 0.0814
v  -0.0564 0.0250 0.0834
v  -0.0536 0.0250 0.0846
v  -0.0500 0.0250 0.0850
v  0.0500 0.0250 0.0850
v  0.0536 0.0250 0.0846
v  0.0564 0.0250 0.0834
v  0.0584 0.0250 0.0814
v  0.0596 0.0250 0.0786
v  0.0600 0.0250 0.0750
v  0.0600 0.0250 -0.0750
v  0.0596 0.0250 -0.0786
v  0.0584 0.0250 -0.0814
v  0.0564 0.0250 -0.0834
v  0.0536 0.0250 -0.0846
v  0.0500 0.0250 -0.0850
v  -0.0500 0.0250 -0.0850
v  -0.0536 0.0250 -0.0846
v  -0.0564 0.0250 -0.0834
v  -0.0584 0.0250 -0.0814
v  -0.0596 0.0250 -0.0786
v  -0.0600 0.0250 -0.0750
# 48 vertices

vn 0.0000 -1.0000 -0.0000
vn 0.0000 1.0000 -0.0000
vn -0.0553 0.0000 0.9985
vn 0.0553 0.0000 0.9985
vn 0.9985 0.0000 0.0553
vn 0.9985 0.0000 -0.0553
vn 0.0553 0.0000 -0.9985
vn -0.0553 0.0000 -0.9985
vn -0.9985 0.0000 -0.0553
vn -0.9985 0.0000 0.0553
vn 0.2549 0.0000 0.9670
vn -0.2549 0.0000 0.9670
vn 0.9670 0.0000 -0.2549
vn -0.2549 0.0000 -0.9670
vn 0.5606 0.0000 0.8281
vn 0.8281 0.0000 0.5606
vn 0.9670 0.0000 0.2549
vn -0.5606 0.0000 0.8281
vn -0.8281 0.0000 0.5606
vn -0.9670 0.0000 0.2549
vn 0.8281 0.0000 -0.5606
vn 0.5606 0.0000 -0.8281
vn 0.2549 0.0000 -0.9670
vn -0.5606 0.0000 -0.8281
vn -0.8281 0.0000 -0.5606
vn -0.9670 0.0000 -0.2549
# 26 vertex normals

vt 0.0000 0.0000 0.0000
vt 0.3600 0.0400 0.0000
vt 0.6400 0.1600 0.0000
vt 0.8400 0.3600 0.0000
vt 0.9600 0.6400 0.0000
vt 1.0000 1.0000 0.0000
vt 1.0000 16.0000 0.0000
vt 0.9600 16.3600 0.0000
vt 0.8400 16.6400 0.0000
vt 0.6400 16.8400 0.0000
vt 0.3600 16.9600 0.0000
vt 0.0000 17.0000 0.0000
vt -10.0000 17.0000 0.0000
vt -10.3600 16.9600 0.0000
vt -10.6400 16.8400 0.0000
vt -10.8400 16.6400 0.0000
vt -10.9600 16.3600 0.0000
vt -11.0000 16.0000 0.0000
vt -11.0000 1.0000 0.0000
vt -10.9600 0.6400 0.0000
vt -10.8400 0.3600 0.0000
vt -10.6400 0.1600 0.0000
vt -10.3600 0.0400 0.0000
vt -10.0000 0.0000 0.0000
vt 0.0000 1.0000 0.0000
vt 0.0400 0.6400 0.0000
vt 0.1600 0.3600 0.0000
vt 0.3600 0.1600 0.0000
vt 0.6400 0.0400 0.0000
vt 1.0000 0.0000 0.0000
vt 11.0000 0.0000 0.0000
vt 11.3600 0.0400 0.0000
vt 11.6400 0.1600 0.0000
vt 11.8400 0.3600 0.0000
vt 11.9600 0.6400 0.0000
vt 12.0000 1.0000 0.0000
vt 12.0000 16.0000 0.0000
vt 11.9600 16.3600 0.0000
vt 11.8400 16.6400 0.0000
vt 11.6400 16.8400 0.0000
vt 11.3600 16.9600 0.0000
vt 11.0000 17.0000 0.0000
vt 1.0000 17.0000 0.0000
vt 0.6400 16.9600 0.0000
vt 0.3600 16.8400 0.0000
vt 0.1600 16.6400 0.0000
vt 0.0400 16.3600 0.0000
vt 0.0000 16.0000 0.0000
vt 11.0000 2.5000 0.0000
vt 1.0000 2.5000 0.0000
vt 16.0000 0.0000 0.0000
vt 16.0000 2.5000 0.0000
vt -0.3174 -0.0000 0.0000
vt -0.0539 -0.0000 0.0000
vt -0.0539 2.5000 0.0000
vt -0.3174 2.5000 0.0000
vt 17.3174 2.5000 0.0000
vt 17.0539 2.5000 0.0000
vt 17.0539 0.0000 0.0000
vt 17.3174 0.0000 0.0000
vt -0.5182 -0.0000 0.0000
vt -0.2145 -0.0000 0.0000
vt -0.2145 2.5000 0.0000
vt -0.5182 2.5000 0.0000
vt 0.2096 -0.0000 0.0000
vt 0.2096 2.5000 0.0000
vt 0.4730 -0.0000 0.0000
vt 0.4730 2.5000 0.0000
vt 0.7365 -0.0000 0.0000
vt 0.7365 2.5000 0.0000
vt 16.7904 2.5000 0.0000
vt 16.7904 0.0000 0.0000
vt 16.5270 2.5000 0.0000
vt 16.5270 0.0000 0.0000
vt 16.2635 2.5000 0.0000
vt 16.2635 0.0000 0.0000
vt 0.0891 -0.0000 0.0000
vt 0.0891 2.5000 0.0000
vt 0.3927 -0.0000 0.0000
vt 0.3927 2.5000 0.0000
vt 0.6964 -0.0000 0.0000
vt 0.6964 2.5000 0.0000
# 82 texture coords

g Box001
usemtl wire_088144225
s 1
f 1/1/1 2/2/1 3/3/1 4/4/1 5/5/1 6/6/1 7/7/1 8/8/1 9/9/1 10/10/1 11/11/1 12/12/1 13/13/1 14/14/1 15/15/1 16/16/1 17/17/1 18/18/1 19/19/1 20/20/1 21/21/1 22/22/1 23/23/1 24/24/1 
f 25/25/2 26/26/2 27/27/2 28/28/2 29/29/2 30/30/2 31/31/2 32/32/2 33/33/2 34/34/2 35/35/2 36/36/2 37/37/2 38/38/2 39/39/2 40/40/2 41/41/2 42/42/2 43/43/2 44/44/2 45/45/2 46/46/2 47/47/2 48/48/2 
s 2
f 1/30/3 24/31/4 31/49/4 30/50/3 
f 19/30/5 18/51/6 37/52/6 36/50/5 
f 13/30/7 12/31/8 43/49/8 42/50/7 
f 7/30/9 6/51/10 25/52/10 48/50/9 
f 24/53/4 23/54/11 32/55/11 31/56/4 
f 30/57/3 29/58/12 2/59/12 1/60/3 
f 18/61/6 17/62/13 38/63/13 37/64/6 
f 12/53/8 11/54/14 44/55/14 43/56/8 
f 23/54/11 22/65/15 33/66/15 32/55/11 
f 22/65/15 21/67/16 34/68/16 33/66/15 
f 21/67/16 20/69/17 35/70/17 34/68/16 
f 20/69/17 19/30/5 36/50/5 35/70/17 
f 29/58/12 28/71/18 3/72/18 2/59/12 
f 28/71/18 27/73/19 4/74/19 3/72/18 
f 27/73/19 26/75/20 5/76/20 4/74/19 
f 26/75/20 25/52/10 6/51/10 5/76/20 
f 17/62/13 16/77/21 39/78/21 38/63/13 
f 16/77/21 15/79/22 40/80/22 39/78/21 
f 15/79/22 14/81/23 41/82/23 40/80/22 
f 14/81/23 13/30/7 42/50/7 41/82/23 
f 11/54/14 10/65/24 45/66/24 44/55/14 
f 10/65/24 9/67/25 46/68/25 45/66/24 
f 9/67/25 8/69/26 47/70/26 46/68/25 
f 8/69/26 7/30/9 48/50/9 47/70/26 
# 26 polygons

